# xmcd
#
# Track frame offsets:
#	150
#	15159
#	30946
#	42734
#	55519
#	68428
#	82279
#	93873
#	107805
#	124964
#	138548
#	150656
#	160526
#	175249
#	187057
#	200134
#	211614
#	229744
#	242655
#	258009
#
# Disc length: 3662 seconds
#
# Revision: 0
# Processed by: cddbd v1.5.1PL2 Copyright (c) Steve Scherf et al.
# Submitted via: audiograbber 1.83.01
#
DISCID=020e4c14
DTITLE=durango - furia
DYEAR=1900
DGENRE=
TTITLE0=furia i 
TTITLE1=1
TTITLE2=14
TTITLE3=11
TTITLE4=14
TTITLE5=15
TTITLE6=14
TTITLE7=72
TTITLE8=748
TTITLE9=4
TTITLE10=fh
TTITLE11=dh
TTITLE12=hd
TTITLE13=dfg
TTITLE14=hh
TTITLE15=gh
TTITLE16=bh
TTITLE17=ghx
TTITLE18=ghxf
TTITLE19=fghh
EXTD=
EXTT0=
EXTT1=
EXTT2=
EXTT3=
EXTT4=
EXTT5=
EXTT6=
EXTT7=
EXTT8=
EXTT9=
EXTT10=
EXTT11=
EXTT12=
EXTT13=
EXTT14=
EXTT15=
EXTT16=
EXTT17=
EXTT18=
EXTT19=
PLAYORDER=
